<?xml version="1.0" encoding="UTF-8"?><svg id="Layer_1" xmlns="http://www.w3.org/2000/svg" viewBox="0 0 192 192"><defs><style>.cls-1{fill:#020617;}</style></defs><path class="cls-1" d="M154.12,91.93c-6.92-5.48-16.37-8.22-28.33-8.22v-.75c8.94-.12,16.22-3.11,21.82-8.96,5.6-5.86,8.41-13.64,8.41-23.34,0-7.68-1.64-13.81-4.92-18.41-3.28-4.6-7.62-8.04-13.03-10.31-5.41-2.27-11.49-3.74-18.22-4.43-5.62-.58-11.35-.9-17.18-1-1.17-.02-2.33-.04-3.5-.04h-.4v2.48c1.23-.02,2.53-.03,3.91-.03.09,0,.18,0,.28,0,10.95,0,19.07,2.71,24.36,8.13,5.29,5.41,7.93,13.28,7.93,23.6,0,8.69-1.61,15.3-4.82,19.83-3.21,4.53-7.52,7.62-12.94,9.26-4.5,1.36-9.44,2.14-14.81,2.37-1.09.05-2.18.08-3.31.08h-14.19v2.27h17.59c7.3,0,13.9.79,19.82,2.36,5.92,1.57,10.61,4.5,14.07,8.79,3.47,4.28,5.21,10.38,5.21,18.32,0,13.1-3.5,22.7-10.49,28.81-6.46,5.65-16.03,8.68-28.7,9.1-1.02.03-2.06.06-3.12.06-5.67,0-9.95-.22-12.85-.66-.71-.11-1.36-.24-1.95-.41-.11,1.15-.24,2.26-.4,3.34h25.21c11.83,0,21.37-1.26,28.61-3.77,7.24-2.52,12.78-5.83,16.62-9.92,3.85-4.09,6.43-8.44,7.75-13.03,1.32-4.59,1.99-8.97,1.99-13.12,0-9.45-3.47-16.91-10.4-22.39Z"/><path class="cls-1" d="M41.53,173.31l-1.98,2.87c5.28,0,10.12-.33,14.5-.98,1.09-.16,2.14-.37,3.16-.63,3.08-.79,5.81-2.03,8.2-3.74,3.17-2.26,5.6-5.72,7.27-10.38.66-1.83,1.19-3.93,1.59-6.29.62-3.63.94-7.87.94-12.75V30.15c0-1.12.07-2.14.2-3.06.41-2.8,1.44-4.66,3.1-5.58,1.86-1.04,4.61-1.64,8.23-1.8.08-.01.16-.03.25-.05.39-.06.8-.12,1.22-.16.19-.02.4-.04.59-.06v-2.29h-48.35v2.51c.08,0,.15,0,.22,0,4.54.02,7.86.64,9.96,1.85,1.61.92,2.62,2.78,3.02,5.58.13.92.2,1.94.2,3.06v114.38c0,2.18-.06,4.22-.17,6.15-.07,1.21-.16,2.38-.27,3.49-.47,4.67-1.33,8.48-2.58,11.43-.1.23-.19.45-.29.67-1.88,4.09-4.89,6.43-9.03,7.03Z"/></svg>